<?xml version="1.0" encoding="UTF-8"?>
<svg width="45px" height="45px" viewBox="0 0 45 45" version="1.1" xmlns="http://www.w3.org/2000/svg" xmlns:xlink="http://www.w3.org/1999/xlink">
    <!-- Generator: sketchtool 61 (101010) - https://sketch.com -->
    <title>888CB4A5-71BC-47A3-AFE4-365AE5757408</title>
    <desc>Created with sketchtool.</desc>
    <g id="Symbols" stroke="none" stroke-width="1" fill="none" fill-rule="evenodd">
        <g id="plants/nootka_rose">
            <path d="M19.3479411,15.5322396 C23.2301215,11.3547243 42.0359032,11.7067316 46.8840601,15.5322396 C51.7322169,19.3577476 34.5682569,33.544552 33.2850925,33.5296558 C31.5165785,33.5090973 15.4657606,19.7097549 19.3479411,15.5322396 Z" id="Path-3" stroke="#FF91EC" fill="#FF91EC" transform="translate(33.244481, 23.029656) scale(-1, 1) rotate(-93.000000) translate(-33.244481, -23.029656) "></path>
            <path d="M-1.89689403,14.3601955 C1.98528641,10.1826803 20.7910681,10.5346876 25.639225,14.3601955 C30.4873818,18.1857035 13.3234218,32.3725079 12.0402574,32.3576117 C10.2717434,32.3370532 -5.77907447,18.5377108 -1.89689403,14.3601955 Z" id="Path-3" stroke="#FF91EC" fill="#FF91EC" transform="translate(11.999646, 21.857612) scale(-1, 1) rotate(-272.000000) translate(-11.999646, -21.857612) "></path>
            <path d="M8.60345958,26.0025838 C12.48564,21.8250686 31.2914217,22.1770758 36.1395786,26.0025838 C40.9877355,29.8280918 23.8237754,44.0148962 22.540611,44 C20.772097,43.9794415 4.72127914,30.1800991 8.60345958,26.0025838 Z" id="Path-3" stroke="#F9A1EA" fill="#F9A1EA" transform="translate(22.500000, 33.500000) scale(1, -1) translate(-22.500000, -33.500000) "></path>
            <path d="M8.60345958,4.85960366 C12.48564,0.88101767 31.2914217,1.21626271 36.1395786,4.85960366 C40.9877355,8.50294461 23.8237754,22.0141869 22.540611,22 C20.772097,21.9804204 4.72127914,8.83818965 8.60345958,4.85960366 Z" id="Path-3" stroke="#F9A1EA" fill="#F9A1EA"></path>
            <g id="Group" transform="translate(13.000000, 12.000000)">
                <polygon id="Star" stroke="#FCBF8E" fill="#FCBF8E" points="10 13.692133 5.88550323 15.855252 6.67130219 11.2736925 3.34260439 8.02901408 7.94275162 7.36057356 10 3.19213304 12.0572484 7.36057356 16.6573956 8.02901408 13.3286978 11.2736925 14.1144968 15.855252"></polygon>
                <polygon id="Star" fill="#ECCD59" transform="translate(9.912950, 9.912950) rotate(35.000000) translate(-9.912950, -9.912950) " points="9.91294977 14.5989183 5.51400197 17.0305968 6.35412624 11.880219 2.79530272 8.23270123 7.71347587 7.48127123 9.91294977 2.79530272 12.1124237 7.48127123 17.0305968 8.23270123 13.4717733 11.880219 14.3118976 17.0305968"></polygon>
            </g>
            <circle id="Oval" stroke="#C06D1A" fill="#CA862F" cx="22.5" cy="22.5" r="1.5"></circle>
        </g>
    </g>
</svg>